<?xml version="1.0" encoding="UTF-8"?><svg id="Calque_2" xmlns="http://www.w3.org/2000/svg" viewBox="0 0 130.06 127.26"><defs><style>.cls-1{fill:#91972a;}</style></defs><g id="_1"><g id="_71"><path class="cls-1" d="m130.06,65.24c0,28.81-18.62,53.25-44.43,61.9-3.3.64-4.47-1.39-4.47-3.14,0-2.13.08-9.17.08-17.89,0-6.09-2.08-10.07-4.41-12.08,14.49-1.62,29.69-7.13,29.69-32.19,0-7.13-2.51-12.95-6.68-17.52.66-1.64,2.89-8.27-.65-17.26,0,0-5.46-1.75-17.87,6.69-5.2-1.46-10.77-2.17-16.28-2.2-5.54.02-11.1.74-16.29,2.19-12.42-8.44-17.88-6.69-17.88-6.69-3.54,8.98-1.31,15.62-.63,17.27-4.17,4.56-6.7,10.38-6.7,17.51,0,24.99,15.18,30.59,29.62,32.24-1.86,1.63-3.54,4.51-4.13,8.72-3.71,1.68-13.13,4.55-18.93-5.41,0,0-3.43-6.27-9.96-6.73,0,0-6.35-.08-.44,3.96,0,0,4.27,2.01,7.22,9.55,0,0,3.82,12.69,21.91,8.75.03,5.44.09,9.54.09,11.09,0,1.73-1.19,3.75-4.44,3.15C18.63,118.51,0,94.06,0,65.24,0,29.21,29.11,0,65.02,0s65.04,29.21,65.04,65.24Z"/></g></g></svg>