<?xml version="1.0" encoding="UTF-8"?><svg id="Calque_2" xmlns="http://www.w3.org/2000/svg" viewBox="0 0 77.03 77.03"><defs><style>.cls-1{fill:#91972a;}</style></defs><g id="Elements"><g><path class="cls-1" d="m53.45,77.03h-29.86c-13,0-23.58-10.58-23.58-23.58v-29.86C0,10.58,10.58,0,23.58,0h29.86c13,0,23.58,10.58,23.58,23.58v29.86c0,13-10.58,23.58-23.58,23.58ZM23.58,5.77c-9.82,0-17.82,7.99-17.82,17.82v29.86c0,9.82,7.99,17.82,17.82,17.82h29.86c9.82,0,17.82-7.99,17.82-17.82v-29.86c0-9.82-7.99-17.82-17.82-17.82h-29.86Z"/><path class="cls-1" d="m38.51,58c-10.74,0-19.48-8.74-19.48-19.48s8.74-19.48,19.48-19.48,19.48,8.74,19.48,19.48-8.74,19.48-19.48,19.48Zm0-33.06c-7.49,0-13.58,6.09-13.58,13.58s6.09,13.58,13.58,13.58,13.58-6.09,13.58-13.58-6.09-13.58-13.58-13.58Z"/><path class="cls-1" d="m65.19,16.91c0,2.8-2.27,5.07-5.07,5.07s-5.07-2.27-5.07-5.07,2.27-5.07,5.07-5.07,5.07,2.27,5.07,5.07Z"/></g></g></svg>