<?xml version="1.0" encoding="UTF-8"?><svg id="Calque_2" xmlns="http://www.w3.org/2000/svg" viewBox="0 0 133.68 133.68"><defs><style>.cls-1{fill:#91972a;}</style></defs><g id="_1"><path class="cls-1" d="m66.84,133.68C29.99,133.68,0,103.7,0,66.84S29.99,0,66.84,0s66.84,29.99,66.84,66.84-29.99,66.84-66.84,66.84Zm0-129.26C32.42,4.42,4.42,32.42,4.42,66.84s28,62.42,62.42,62.42,62.42-28,62.42-62.42S101.26,4.42,66.84,4.42Z"/><path class="cls-1" d="m39.74,54.8h12.52v40.21h-12.52v-40.21Zm6.26-19.98c4,0,7.25,3.25,7.25,7.24s-3.24,7.25-7.25,7.25-7.26-3.25-7.26-7.25,3.24-7.24,7.26-7.24h0Z"/><path class="cls-1" d="m60.1,54.8h11.99v5.5h.16c1.67-3.16,5.75-6.5,11.84-6.5,12.65,0,14.99,8.32,14.99,19.15v22.05h-12.49v-19.55c0-4.67-.09-10.66-6.5-10.66s-7.5,5.08-7.5,10.32v19.89h-12.49v-40.21Z"/></g></svg>