<?xml version="1.0" encoding="UTF-8"?><svg id="Calque_2" xmlns="http://www.w3.org/2000/svg" viewBox="0 0 529.25 141.32"><defs><style>.cls-1{fill:#fff;}</style></defs><g id="Calque_1-2"><g><path class="cls-1" d="m528.62,13.46c-.57.81-1.21,1.62-1.72,2.46-3.06,5.18-6.16,10.36-9.22,15.55-.67,1.11-2.09,1.82-3.6,1.78l-9.46.03s-6.73,0-6.73.07-.03.13-.03.2c0-.03,4.85.13,5.28.17,1.82.07,3.63.17,5.45.44,2.83.37,4.48,2.46,3.63,4.68-.81,2.05-1.72,4.11-2.73,6.12-.47.94-.98,1.85-1.48,2.79-5.11,8.58-10.23,17.19-15.41,25.77-1.99,3.26-4.61,6.63-7.77,9.46-7.03,6.33-16.86,7.84-22.95,3.84-4.44-2.89-5.59-7.27-5.48-12.11.2-9.86.5-19.72.77-29.58.03-.87.07-1.78.07-2.66.07-1.99.1-3.97.17-5.92-.54-.98-1.65-1.72-3.3-1.95-1.65-.2-3.3-.34-4.95-.4-.17,0-1.11-.03-2.12-.07-1.31-.03-2.69-.07-2.69-.03v-.24s1.38,0,2.83,0c1.62,0,3.36.03,3.36.03,0,0,4.27.03,6.93.1.13-5.62.27-11.2.44-16.79.03-1.24.03-2.49.1-3.7-.47-.07-.34-.07-.81-.13-3.2,6.56-6.43,13.12-9.66,19.68-.4.13-.91.2-1.38.2l-9.19.03s-6.53,0-6.56.07v.2s4.68.13,5.11.17c1.75.07,3.53.17,5.25.4,3.36.47,4.61,2.02,3.6,4.71-.77,2.05-1.68,4.11-2.66,6.12-5.28,10.73-9.93,20.49-14.33,29.91,1.62-10.06.77-19.11-2.52-27.12-5.05-11.88-14.6-19.79-28.43-23.42-11.14-2.93-22.04-2.36-32.5,1.68-1.68-.64-3.47-1.18-5.32-1.68-11.54-3.03-22.81-2.32-33.61,2.15-11.41.13-22.81.3-34.19.44-3.26.03-6.56,0-9.93,0,5.01-8.78,10.13-17.73,15.34-26.92-.5.13-.67.13-.71.2-.24.3-.44.61-.64.91-5.45,8.92-13.59,15.92-23.82,21.4-13.63,7.3-28.8,11.31-44.72,13.76-12.21,1.88-24.5,2.76-36.91,2.76-.54,0-1.04.07-1.58.13.03.13.07.27.07.44h2.22c8.58,0,17.16-.03,25.74,0,2.42,0,4.85.1,7.27.3,5.62.5,8.08,2.96,7.34,7.44-.34,1.85-.81,3.73-1.51,5.52-4.24,10.77-10.46,20.9-16.15,31.16-.77,1.41-1.58,2.83-2.36,4.21-.74-1.25-1.48-2.46-2.25-3.7-9.86-16.32-19.68-32.64-29.58-48.96-3.3-5.42-8.58-8.75-16.29-8.88-3.2-.07-6.39-.13-9.59-.17-3.16,0-6.36-.07-9.56-.07h-.17c-3.2,0-6.39.03-9.59.07-3.23.03-6.46.07-9.69.13-3.26.03-6.49.07-9.72.13-3.23.03-6.49.07-9.72.13h-1.35c-3.3.03-6.56,0-9.96,0C98.05,18.14,103.17,9.19,108.38,0c-.5.13-.67.13-.71.2-.24.3-.44.61-.64.91-5.45,8.92-13.63,15.92-23.82,21.4-13.63,7.3-28.8,11.31-44.75,13.76-12.18,1.88-24.5,2.76-36.88,2.76-.54,0-1.04.07-1.58.13.03.13.03.27.07.44h2.19c8.61,0,17.19-.03,25.77,0,2.42,0,4.85.1,7.27.3,5.62.5,8.08,2.96,7.3,7.44-.3,1.85-.77,3.73-1.48,5.52-4.24,10.77-10.46,20.9-16.15,31.16-4.14,7.47-8.61,14.84-11.34,22.75-1.04,2.99-1.65,6.06-.87,9.15,1.08,4.41,5.05,7.17,9.52,9.59,6.26,3.4,13.22,5.89,20.53,7.5,5.52,1.18,11.47,2.15,17.13,1.11,6.46-1.18,10.77-5.25,15.44-8.65.34,0,1.35-1.01,1.65-1.21.57-.44,1.18-.87,1.78-1.31,1.14-.81,2.22-1.65,3.33-2.52,1.75-1.35,3.5-2.69,5.25-4.04,2.29-1.75,4.58-3.5,6.83-5.25,2.73-2.09,5.45-4.17,8.14-6.26,3.06-2.39,6.12-4.74,9.19-7.1,3.33-2.56,6.63-5.11,9.96-7.67,1.48-1.18,2.96-2.32,4.44-3.47,1.28-1.01,2.49-2.02,4.04-2.79,1.45-.71,2.93-1.14,4.54-1.51,1.68-.37,3.4-.67,5.15-.91,4.11-.5,8.31-.67,12.48-.77,4.07-.07,8.11.07,12.18.1,2.02.03,4-.03,5.96.44,3.73.98,6.97,2.99,9.32,5.48,1.62,1.72,2.93,3.6,4.04,5.55,6.49,11.27,13.49,22.38,20.29,33.55,3.06,5.05,9.29,8.41,16.32,8.65,6.66.24,13.36.1,20.05.07,1.68-.03,3.33-.03,5.01-.03.07,0,.1,0,.17-.03,4.54-.4,8.82-1.92,12.65-5.28.2-.17.47-.34.67-.5,7.47-5.65,23.69-14.23,24.29-12.75,4.91,12.01,14.47,19.95,28.4,23.62,4.58,1.21,9.19,1.82,13.69,1.82,6.36,0,12.62-1.18,18.67-3.53,1.75.64,3.53,1.21,5.42,1.72,4.58,1.21,9.19,1.82,13.73,1.82,14.13,0,28.5-6.53,38.8-13.9,7.13-5.08,11.71-11.98,16.22-18.61,5.05-7.44,10.06-14.94,15.61-22.14,3.3-4.27,8.38-6.76,14.2-6.97,5.48-.2,7.57,2.79,8.82,6.26.5,1.41,1.04,2.86,1.11,4.41.17,4.85.27,9.76.13,14.67-.17,7.87-.54,15.78-.81,23.65,5.85-8.95,10.73-17.97,16.35-26.82,3.9-6.06,8.18-12.21,13.49-17.77,5.45-5.65,13.59-6.09,17.83-1.51,1.72,1.82,2.86,4.31,3.06,6.76,1.28,15.61,2.19,22.28,3.2,37.92.17,2.36.27,4.71.4,7.07.5.03.3,0,.84.03,4.1-31.6,8.24-54.21,12.38-85.8,0-.17.03-.34.07-.5.13-1.04.27-2.09.4-3.13.27-2.05.54-4.11.81-6.16,0-.2.03-.44.07-.67.07-1.65-1.21-3.2-3.8-3.53-1.68-.2-3.36-.34-5.08-.4-.4,0-4.95-.17-4.95-.1v-.24s6.36.03,6.36.03c0,0,5.25.07,7.84.1.07-.03.1-.07.13-.1.91-6.93,1.82-13.53,2.73-20.46-.2,0-.44.03-.64.03Zm-357.01,62.89c-.2.44-.5.87-.87,1.28-.61.64-1.24,1.14-2.19,1.41-.03,0-.07,0-.1.03-.67.17-1.38.17-2.09.13-1.08-.07-2.12-.13-3.16-.17-2.66-.07-5.32-.1-7.97-.1-3.87,0-7.77.1-11.61.37-3.26.27-6.53.64-9.66,1.38-1.41.34-2.86.71-4.21,1.24-1.48.57-2.56,1.41-3.73,2.29-1.72,1.35-3.43,2.69-5.18,4.04-3.3,2.56-6.63,5.15-9.96,7.71-3.1,2.39-6.19,4.78-9.25,7.13-2.76,2.12-5.48,4.24-8.24,6.36-.37.3-.77.61-1.18.91-2.39,1.18-4.91,2.19-7.57,3.03-10.4,3.3-20.19,2.59-29.27-2.79-3.47-2.05-4.61-4.85-3.63-8.08.77-2.56,1.72-5.11,3.06-7.5,5.82-10.53,11.88-20.93,17.67-31.49,2.52-4.61,4.88-9.35,6.73-14.2,1.58-4.07-.34-6.43-5.55-7.1-3.36-.44-6.73-.54-10.13-.67-1.01-.03-2.02-.1-3.03-.13-.98-.03-1.99-.03-2.96-.03v-.37c3.4,0,6.76-.07,10.16-.1,3.43-.03,6.86-.07,10.3-.07,15.51-.07,30.99-.07,46.47-.03,1.82,0,3.7.4,5.45.87,1.92.5,2.52,1.58,1.72,3.06-.71,1.24-1.68,2.42-2.73,3.53-1.45,1.51-3.06,2.89-4.58,4.34.34.07.5.03.64-.07,6.53-5.48,13.12-10.94,19.48-16.52,1.11-.98,2.09-2.12,2.93-3.3.81.98,1.58,2.12,2.39,3.5,7,11.58,13.96,23.15,20.93,34.69,1.01,1.65,1.68,3.57.94,5.42Zm114.77-7.34c-6.39,15.61-8.18,29.31-5.28,40.82-2.69,1.41-5.55,2.62-8.61,3.57-10.36,3.3-20.19,2.59-29.27-2.79-3.47-2.05-4.58-4.85-3.6-8.08.77-2.56,1.72-5.11,3.03-7.5,5.82-10.53,11.91-20.93,17.67-31.49,2.52-4.61,4.88-9.35,6.73-14.2,1.58-4.07-.34-6.43-5.55-7.1-3.33-.44-6.73-.54-10.13-.67-.98-.03-1.99-.1-2.99-.13s-2.02-.03-2.99-.03v-.37c3.4,0,6.8-.07,10.16-.1,3.43-.03,6.9-.07,10.33-.07,12.75-.03,25.54-.07,38.29-.03-7.17,7.37-13.12,16.79-17.77,28.2Zm115.92,12.89c0,.07-.03.13-.1.2-.71,2.19-1.58,4.48-2.52,6.8-6.76,16.49-15.07,28.6-24.7,35.97-6.73,5.01-12.79,7.1-18.84,6.46,11.68-7.91,20.96-20.19,27.73-36.64,1.62-4,2.96-7.87,3.97-11.64-13.46,1.35-20.19,3.9-25.77,7.67-7.23,5.69-11.88,13.43-17.4,36.21,4.34-22.58,1.88-30.62-2.79-36.07-3.84-3.57-9.62-6.29-22.34-7.64-3.03,12.45-2.56,23.42,1.41,32.67,2.12,5.22,5.15,9.69,9.02,13.36-5.11,2.32-9.96,2.79-14.87,1.51-7.2-1.92-11.47-6.76-13.43-15.21-1.28-5.75-1.18-12.45.27-20.05.07-.24.1-.5.17-.74.77-3.9,1.92-8.04,3.4-12.38.03-.07.07-.17.1-.27.81-2.36,1.72-4.81,2.76-7.3,6.7-16.42,15.01-28.47,24.63-35.84,5.89-4.44,11.37-6.6,16.72-6.6.67,0,1.38.07,2.05.13-11.68,8.04-20.96,20.26-27.59,36.51-1.65,4-3.13,8.34-4.11,12.15,13.26-1.38,19.95-3.94,25.47-7.67,7.2-5.69,12.21-13.66,17.63-36.44-4.04,22.78-2.36,30.79,2.49,36.47,4.04,3.74,9.72,6.23,22.68,7.5,2.99-12.38,2.62-23.79-1.24-33.24l-.03-.03c-2.19-5.15-5.22-9.52-9.05-13.16,3.23-1.48,6.39-2.22,9.49-2.22,1.78,0,3.57.24,5.35.74,7.17,1.85,11.44,6.7,13.46,15.18,1.99,9.02.64,20.29-4,33.61Z"/><path class="cls-1" d="m151.25,134.39h-33.14c14.03-5.42,14.7-32.17,16.56-44.01,1.85,11.84,2.52,38.59,16.59,44.01Z"/></g></g></svg>